<?xml version="1.0" standalone="no"?>
<!DOCTYPE svg PUBLIC "-//W3C//DTD SVG 20010904//EN"
 "http://www.w3.org/TR/2001/REC-SVG-20010904/DTD/svg10.dtd">
<svg version="1.0" xmlns="http://www.w3.org/2000/svg"
 width="512.000000pt" height="512.000000pt" viewBox="0 0 512.000000 512.000000"
 preserveAspectRatio="xMidYMid meet">

<g transform="translate(0.000000,512.000000) scale(0.100000,-0.100000)"
fill="#000000" stroke="none">
<path d="M3280 4318 c-28 -7 -206 -181 -847 -821 -447 -446 -820 -827 -829
-845 -24 -50 -28 -97 -14 -149 12 -45 65 -100 819 -856 443 -444 820 -817 837
-828 98 -61 239 -17 295 92 24 47 25 137 3 182 -9 18 -310 327 -670 687 -454
455 -658 666 -669 692 -19 48 -19 128 0 176 11 26 215 237 669 692 360 360
661 669 670 687 22 45 21 135 -3 182 -50 97 -153 140 -261 109z"/>
</g>
</svg>
