<?xml version="1.0" standalone="no"?>
<!DOCTYPE svg PUBLIC "-//W3C//DTD SVG 20010904//EN"
 "http://www.w3.org/TR/2001/REC-SVG-20010904/DTD/svg10.dtd">
<svg version="1.0" xmlns="http://www.w3.org/2000/svg"
 width="512.000000pt" height="512.000000pt" viewBox="0 0 512.000000 512.000000"
 preserveAspectRatio="xMidYMid meet">

<g transform="translate(0.000000,512.000000) scale(0.100000,-0.100000)"
fill="#000000" stroke="none">
<path d="M673 5106 c-171 -42 -316 -192 -352 -364 -17 -80 -14 -682 3 -704 33
-45 119 -35 131 14 2 13 6 169 7 348 3 309 4 327 25 372 30 66 96 133 162 165
l56 28 476 3 c460 3 477 3 498 23 29 27 28 81 -1 109 -21 20 -32 20 -487 19
-337 0 -480 -4 -518 -13z"/>
<path d="M1938 5106 c-42 -31 -39 -102 5 -125 15 -7 117 -12 312 -14 l290 -2
5 -530 5 -530 28 -56 c33 -69 99 -132 175 -167 l57 -27 523 -3 522 -3 0 -737
0 -737 -153 -1 c-129 -1 -167 -5 -249 -27 -304 -80 -537 -260 -693 -533 -50
-87 -56 -126 -25 -160 l21 -21 -21 -79 c-11 -43 -20 -85 -20 -94 0 -9 -13 -20
-32 -25 -45 -14 -58 -45 -58 -146 0 -108 22 -238 60 -352 17 -48 30 -90 30
-93 0 -2 -285 -4 -634 -4 -349 0 -642 -3 -651 -6 -26 -10 -45 -63 -34 -93 20
-52 -5 -50 724 -51 l680 0 67 -81 c204 -247 478 -388 788 -406 644 -36 1184
504 1146 1147 -17 302 -148 565 -382 769 -87 76 -221 155 -326 192 l-87 32 -3
776 -3 776 -33 70 c-31 66 -70 106 -620 658 -323 324 -607 603 -632 622 -25
18 -73 43 -107 54 -58 19 -84 21 -360 21 -230 -1 -302 -4 -315 -14z m1355
-1294 c-432 -2 -448 -2 -489 18 -24 12 -54 38 -70 62 l-29 41 -3 461 -3 461
521 -520 520 -520 -447 -3z m282 -2472 c96 -94 117 -110 145 -110 28 0 49 16
145 110 123 120 147 131 192 88 46 -43 34 -69 -87 -193 -94 -96 -110 -117
-110 -145 0 -28 16 -49 110 -145 120 -123 131 -147 88 -192 -43 -46 -69 -34
-193 87 -149 146 -141 146 -290 0 -123 -120 -147 -131 -192 -88 -46 43 -34 69
87 193 94 96 110 117 110 145 0 28 -16 49 -110 145 -120 123 -131 147 -88 192
43 46 69 34 193 -87z"/>
<path d="M361 3798 c-53 -19 -50 61 -51 -1460 0 -994 3 -1433 11 -1470 37
-177 190 -330 367 -367 29 -6 144 -11 256 -11 190 0 204 1 224 20 29 27 30 82
1 109 -20 18 -39 20 -243 23 -202 3 -225 5 -268 25 -66 30 -133 96 -165 162
l-28 56 -5 1440 c-3 792 -8 1445 -12 1452 -13 19 -61 31 -87 21z"/>
<path d="M930 3687 c-13 -7 -31 -25 -40 -40 -13 -24 -13 -30 0 -54 30 -54 18
-53 688 -53 538 0 627 2 652 15 53 27 53 103 0 130 -25 13 -114 15 -652 15
-478 0 -629 -3 -648 -13z"/>
<path d="M910 3087 c-13 -7 -31 -25 -40 -40 -13 -24 -13 -30 0 -54 9 -15 27
-33 40 -40 20 -10 265 -12 1161 -10 1102 2 1138 3 1158 21 29 26 29 86 0 112
-20 18 -56 19 -1158 21 -896 2 -1141 0 -1161 -10z"/>
<path d="M910 2487 c-13 -7 -31 -25 -40 -40 -13 -24 -13 -30 0 -54 9 -15 27
-33 40 -40 20 -10 265 -12 1161 -10 1102 2 1138 3 1158 21 29 26 29 86 0 112
-20 18 -56 19 -1158 21 -896 2 -1141 0 -1161 -10z"/>
<path d="M930 1887 c-13 -7 -31 -25 -40 -40 -13 -24 -13 -30 0 -54 30 -54 18
-53 688 -53 538 0 627 2 652 15 53 27 53 103 0 130 -25 13 -114 15 -652 15
-478 0 -629 -3 -648 -13z"/>
</g>
</svg>
